<svg xmlns="http://www.w3.org/2000/svg" xmlns:xlink="http://www.w3.org/1999/xlink" width="2000" zoomAndPan="magnify" viewBox="0 0 1500 1499.999933" height="2000" preserveAspectRatio="xMidYMid meet" version="1.0"><defs><clipPath id="a42c181ded"><path d="M 274.46875 88.28125 L 1218.71875 88.28125 L 1218.71875 1304 L 274.46875 1304 Z M 274.46875 88.28125 " clip-rule="nonzero"/></clipPath></defs><g clip-path="url(#a42c181ded)"><path fill="#c3642c" d="M 746.40625 88.902344 L 274.476562 852.632812 L 746.40625 1303.59375 L 1218.332031 852.632812 Z M 289.589844 850.703125 L 746.40625 111.425781 L 1203.21875 850.703125 L 746.40625 1287.222656 Z M 289.589844 850.703125 " fill-opacity="1" fill-rule="nonzero"/></g><path fill="#c3642c" d="M 777.917969 1198.9375 L 1143.144531 842.722656 L 1043.421875 678.011719 C 1043.367188 677.371094 1043.335938 676.96875 1043.316406 676.832031 L 1042.738281 676.894531 L 746.382812 187.410156 L 352.09375 838.699219 L 349.65625 842.722656 L 746.40625 1229.667969 L 775.132812 1201.652344 L 775.699219 1202.085938 C 775.835938 1201.921875 776.648438 1200.828125 777.917969 1198.9375 Z M 565.765625 702.816406 C 592.746094 753.734375 641.363281 788.964844 710.257812 807.503906 L 713.332031 796.066406 C 700.066406 792.496094 687.609375 788.273438 675.945312 783.433594 C 688.136719 778.582031 698.148438 769.671875 702.175781 762.632812 C 706.707031 754.695312 708.5625 745.425781 707.542969 735.835938 C 706.519531 726.277344 705.753906 706.890625 712.125 684.390625 C 714.570312 675.738281 721.261719 669.214844 730.011719 666.933594 C 738.878906 664.621094 748.015625 667.101562 754.476562 673.5625 L 761.105469 680.1875 L 767.886719 661.132812 L 767.96875 660.574219 C 768.007812 660.308594 771.953125 636.824219 798.90625 624.902344 C 795.035156 633.117188 790.574219 644.886719 787.675781 659.882812 C 784.183594 677.855469 783.636719 696.828125 786.042969 716.273438 C 789.035156 740.449219 796.613281 765.421875 808.585938 790.492188 C 845.726562 868.3125 802.632812 930.152344 782.378906 953.121094 C 775.8125 960.574219 769.652344 968.296875 763.910156 976.265625 C 766.976562 954.515625 764.746094 934.324219 757.222656 917.003906 C 742.058594 882.074219 706.273438 858.289062 650.871094 846.304688 C 576.738281 830.273438 525.777344 799.648438 499.402344 755.273438 C 482.949219 727.578125 479.5 699.574219 479.519531 680.953125 C 479.53125 660.605469 483.558594 646.660156 483.597656 646.527344 L 482.472656 646.195312 L 547.007812 539.597656 C 545.296875 548.703125 543.707031 559.34375 542.671875 571.113281 C 539.648438 605.640625 541.207031 656.476562 565.765625 702.816406 Z M 960.933594 593.460938 C 959.714844 579.421875 957.777344 566.703125 955.792969 556.132812 L 1031.746094 681.582031 C 1032.054688 691.304688 1031.457031 719.847656 1016.683594 750.546875 C 992.40625 800.980469 943.261719 833.195312 870.613281 846.296875 L 868.683594 846.648438 C 856.863281 848.773438 845.582031 850.816406 834.980469 853.367188 C 835.175781 833.300781 831.140625 813.296875 822.902344 793.539062 C 824.605469 793.238281 826.332031 792.949219 828.097656 792.660156 C 833.039062 791.84375 838.148438 791 843.375 789.800781 C 886.851562 779.882812 918.964844 757.390625 938.804688 722.933594 C 949.4375 704.464844 956.539062 682.5 959.902344 657.632812 C 962.574219 637.90625 962.925781 616.3125 960.933594 593.460938 Z M 489.121094 761.175781 C 517.207031 808.585938 570.792969 841.132812 648.375 857.90625 C 699.800781 869.023438 732.757812 890.484375 746.34375 921.691406 C 755.4375 942.582031 754.382812 965.023438 750.78125 982.808594 C 749.472656 980.867188 747.972656 978.855469 746.238281 976.84375 C 736.414062 965.382812 716.925781 950.890625 679.878906 946.898438 C 582.023438 936.359375 509.539062 894.976562 465.957031 862.109375 C 419.300781 826.929688 394.878906 793.722656 393.960938 792.453125 L 468.0625 670.0625 C 467.847656 673.3125 467.710938 676.78125 467.703125 680.46875 C 467.597656 700.648438 471.261719 731.035156 489.121094 761.175781 Z M 791.253906 960.976562 C 801.785156 949.023438 820.808594 923.960938 829.832031 890.351562 C 832.027344 882.144531 833.515625 873.929688 834.308594 865.722656 C 845.539062 862.851562 857.835938 860.632812 870.769531 858.300781 L 872.699219 857.949219 C 914.804688 850.363281 949.984375 836.191406 977.273438 815.835938 C 999.292969 799.410156 1016.230469 778.984375 1027.605469 755.117188 C 1037.578125 734.195312 1041.492188 714.457031 1042.914062 700.039062 L 1101.855469 797.386719 C 1097.191406 803.179688 1075.925781 828.902344 1045.101562 855.824219 C 1013.125 883.746094 964.125 918.613281 912.246094 926.179688 C 879.253906 930.988281 849.183594 939.703125 822.875 952.078125 C 804.625 960.65625 788.148438 971.011719 773.761719 982.902344 C 779.210938 975.355469 785.042969 968.027344 791.253906 960.976562 Z M 938.605469 527.738281 L 937.046875 528.222656 C 937.140625 528.511719 945.925781 557.144531 949.15625 594.75 C 952.109375 629.070312 950.933594 678.15625 928.511719 717.050781 C 910.375 748.511719 880.84375 769.105469 840.71875 778.25 C 835.835938 779.367188 830.902344 780.179688 826.136719 780.964844 C 823.398438 781.417969 820.613281 781.882812 817.847656 782.398438 C 793.652344 730.128906 794.269531 688.609375 799.152344 662.816406 C 804.539062 634.355469 816.121094 618.304688 816.226562 618.152344 L 825.671875 605.402344 L 810.1875 608.839844 C 785.597656 614.300781 772.273438 627.421875 765.417969 637.464844 C 758.894531 647.03125 756.839844 655.722656 756.367188 658.117188 L 755.828125 659.636719 C 747.3125 654.421875 737.042969 652.84375 727.019531 655.457031 C 714.15625 658.800781 704.332031 668.410156 700.71875 681.148438 C 693.800781 705.570312 694.636719 726.667969 695.753906 737.074219 C 696.496094 744.074219 695.125 751.0625 691.882812 756.738281 C 688.21875 763.148438 673.519531 775.113281 658.5 775.113281 L 658.5 775.402344 C 621.421875 756.605469 593.863281 730.476562 576.261719 697.300781 C 553.089844 653.617188 551.601562 605.320312 554.429688 572.496094 C 557.515625 536.726562 566.257812 511.003906 566.394531 510.601562 L 564.867188 510.074219 L 746.40625 210.273438 Z M 387.34375 803.34375 C 395.34375 813.523438 418.917969 841.414062 458.433594 871.277344 C 486.953125 892.828125 517.878906 910.890625 550.363281 924.953125 C 590.960938 942.53125 634.109375 953.875 678.597656 958.664062 C 704.496094 961.453125 724.605469 970.203125 736.742188 983.964844 C 742.203125 990.15625 744.949219 996.125 746.261719 999.890625 C 744.765625 1004.496094 743.175781 1008.726562 741.636719 1012.453125 C 738.746094 1018.015625 736.019531 1023.675781 733.503906 1029.414062 C 733.410156 1029.566406 733.359375 1029.660156 733.359375 1029.671875 L 733.367188 1029.683594 C 731.148438 1033.644531 730.125 1036.070312 730.003906 1036.371094 L 730.476562 1036.566406 C 719.710938 1063.003906 713.15625 1090.511719 710.988281 1118.464844 C 709.480469 1137.910156 709.535156 1158.121094 711.125 1178.738281 L 364.652344 840.824219 Z M 724.210938 1191.496094 C 721.476562 1166.742188 720.992188 1142.496094 722.789062 1119.371094 C 725.046875 1090.304688 732.46875 1061.453125 744.445312 1034.191406 C 749.078125 1026.214844 758.6875 1012.082031 775.515625 997 C 799.183594 975.800781 842.421875 948.34375 913.945312 937.90625 C 938.214844 934.367188 963.785156 925.042969 989.929688 910.179688 C 1010.679688 898.390625 1031.859375 883.105469 1052.886719 864.742188 C 1080.613281 840.535156 1100.429688 817.710938 1108.367188 808.144531 L 1128.144531 840.804688 L 793.320312 1167.351562 C 794.300781 1164.480469 795.230469 1161.457031 796.078125 1158.308594 C 802.539062 1134.132812 804.859375 1097.386719 779.230469 1059.625 L 769.433594 1066.273438 C 787.910156 1093.496094 793.0625 1123.285156 784.753906 1154.828125 C 780.167969 1172.203125 772.550781 1185.40625 768.691406 1191.382812 L 746.40625 1213.121094 Z M 724.210938 1191.496094 " fill-opacity="1" fill-rule="nonzero"/><path stroke-linecap="butt" transform="matrix(0.75, 0, 0, 0.75, 397.196366, 1302.72726)" fill="none" stroke-linejoin="miter" d="M -0.00140405 1.99907 L 945.602844 1.99907 " stroke="#ffffff" stroke-width="4" stroke-opacity="1" stroke-miterlimit="4"/></svg>